HIERARCHY
ROOT hip
{
  OFFSET 0 0 0
  CHANNELS 6 Xposition Yposition Zposition Zrotation Yrotation Xrotation
  JOINT abdomen
  {
    OFFSET 0 20.6881 -0.73152
    CHANNELS 3 Zrotation Xrotation Yrotation
    JOINT chest
    {
      OFFSET 0 11.7043 -0.48768
      CHANNELS 3 Zrotation Xrotation Yrotation
      JOINT neck
      {
        OFFSET 0 22.1894 -2.19456
        CHANNELS 3 Zrotation Xrotation Yrotation
        JOINT head
        {
          OFFSET -0.24384 7.07133 1.2192
          CHANNELS 3 Zrotation Xrotation Yrotation
          JOINT leftEye
          {
            OFFSET 4.14528 8.04674 8.04672
            CHANNELS 3 Zrotation Xrotation Yrotation
            End Site
            {
              OFFSET 1 0 0
            }
          }
          JOINT rightEye
          {
            OFFSET -3.6576 8.04674 8.04672
            CHANNELS 3 Zrotation Xrotation Yrotation
            End Site
            {
              OFFSET 1 0 0
            }
          }
        }
      }
      JOINT rCollar
      {
        OFFSET -2.68224 19.2634 -4.8768
        CHANNELS 3 Zrotation Xrotation Yrotation
        JOINT rShldr
        {
          OFFSET -8.77824 -1.95073 1.46304
          CHANNELS 3 Zrotation Xrotation Yrotation
          JOINT rForeArm
          {
            OFFSET -28.1742 -1.7115 0.48768
            CHANNELS 3 Zrotation Xrotation Yrotation
            JOINT rHand
            {
              OFFSET -22.5879 0.773209 7.07136
              CHANNELS 3 Zrotation Xrotation Yrotation
              JOINT rThumb1
              {
                OFFSET -1.2192 -0.487915 3.41376
                CHANNELS 3 Zrotation Xrotation Yrotation
                JOINT rThumb2
                {
                  OFFSET -3.37035 -0.52449 3.41376
                  CHANNELS 3 Zrotation Xrotation Yrotation
                  End Site
                  {
                    OFFSET -1.78271 -1.18214 1.43049
                  }
                }
              }
              JOINT rIndex1
              {
                OFFSET -7.75947 0.938293 5.60832
                CHANNELS 3 Zrotation Xrotation Yrotation
                JOINT rIndex2
                {
                  OFFSET -2.54057 -0.884171 1.56538
                  CHANNELS 3 Zrotation Xrotation Yrotation
                  End Site
                  {
                    OFFSET -1.62519 -0.234802 1.16502
                  }
                }
              }
              JOINT rMid1
              {
                OFFSET -8.24714 1.18213 3.41376
                CHANNELS 3 Zrotation Xrotation Yrotation
                JOINT rMid2
                {
                  OFFSET -3.10165 -0.590103 1.0647
                  CHANNELS 3 Zrotation Xrotation Yrotation
                  End Site
                  {
                    OFFSET -2.48547 -0.328903 0.83742
                  }
                }
              }
              JOINT rRing1
              {
                OFFSET -8.82822 0.546677 1.51678
                CHANNELS 3 Zrotation Xrotation Yrotation
                JOINT rRing2
                {
                  OFFSET -2.60934 -0.819778 -0.0198488
                  CHANNELS 3 Zrotation Xrotation Yrotation
                  End Site
                  {
                    OFFSET -2.33842 -0.294052 0.168128
                  }
                }
              }
              JOINT rPinky1
              {
                OFFSET -8.27202 -0.0477905 -0.4584
                CHANNELS 3 Zrotation Xrotation Yrotation
                JOINT rPinky2
                {
                  OFFSET -1.82734 -0.647385 -0.700984
                  CHANNELS 3 Zrotation Xrotation Yrotation
                  End Site
                  {
                    OFFSET -1.69225 -0.51767 -0.607171
                  }
                }
              }
            }
          }
        }
      }
      JOINT lCollar
      {
        OFFSET 2.68224 19.2634 -4.8768
        CHANNELS 3 Zrotation Xrotation Yrotation
        JOINT lShldr
        {
          OFFSET 8.77824 -1.95073 1.46304
          CHANNELS 3 Zrotation Xrotation Yrotation
          JOINT lForeArm
          {
            OFFSET 28.1742 -1.7115 0.48768
            CHANNELS 3 Zrotation Xrotation Yrotation
            JOINT lHand
            {
              OFFSET 22.5879 0.773209 7.07136
              CHANNELS 3 Zrotation Xrotation Yrotation
              JOINT lThumb1
              {
                OFFSET 1.2192 -0.487915 3.41376
                CHANNELS 3 Zrotation Xrotation Yrotation
                JOINT lThumb2
                {
                  OFFSET 3.37035 -0.52449 3.41376
                  CHANNELS 3 Zrotation Xrotation Yrotation
                  End Site
                  {
                    OFFSET 1.78271 -1.18214 1.43049
                  }
                }
              }
              JOINT lIndex1
              {
                OFFSET 7.75947 0.938293 5.60832
                CHANNELS 3 Zrotation Xrotation Yrotation
                JOINT lIndex2
                {
                  OFFSET 2.54057 -0.884171 1.56538
                  CHANNELS 3 Zrotation Xrotation Yrotation
                  End Site
                  {
                    OFFSET 1.62519 -0.234802 1.16502
                  }
                }
              }
              JOINT lMid1
              {
                OFFSET 8.24714 1.18213 3.41376
                CHANNELS 3 Zrotation Xrotation Yrotation
                JOINT lMid2
                {
                  OFFSET 3.10165 -0.590103 1.0647
                  CHANNELS 3 Zrotation Xrotation Yrotation
                  End Site
                  {
                    OFFSET 2.48547 -0.328903 0.83742
                  }
                }
              }
              JOINT lRing1
              {
                OFFSET 8.82822 0.546677 1.51678
                CHANNELS 3 Zrotation Xrotation Yrotation
                JOINT lRing2
                {
                  OFFSET 2.60934 -0.819778 -0.0198488
                  CHANNELS 3 Zrotation Xrotation Yrotation
                  End Site
                  {
                    OFFSET 2.33842 -0.294052 0.168128
                  }
                }
              }
              JOINT lPinky1
              {
                OFFSET 8.27202 -0.0477905 -0.4584
                CHANNELS 3 Zrotation Xrotation Yrotation
                JOINT lPinky2
                {
                  OFFSET 1.82734 -0.647385 -0.700984
                  CHANNELS 3 Zrotation Xrotation Yrotation
                  End Site
                  {
                    OFFSET 1.69225 -0.51767 -0.607171
                  }
                }
              }
            }
          }
        }
      }
    }
  }
  JOINT rButtock
  {
    OFFSET -8.77824 4.35084 1.2192
    CHANNELS 3 Zrotation Xrotation Yrotation
    JOINT rThigh
    {
      OFFSET 0 -1.70687 -2.19456
      CHANNELS 3 Zrotation Xrotation Yrotation
      JOINT rShin
      {
        OFFSET 0 -36.8199 0.73152
        CHANNELS 3 Zrotation Xrotation Yrotation
        JOINT rFoot
        {
          OFFSET 0.73152 -45.1104 -5.12064
          CHANNELS 3 Zrotation Xrotation Yrotation
          End Site
          {
            OFFSET -1.1221 -3.69964 12.103
          }
        }
      }
    }
  }
  JOINT lButtock
  {
    OFFSET 8.77824 4.35084 1.2192
    CHANNELS 3 Zrotation Xrotation Yrotation
    JOINT lThigh
    {
      OFFSET 0 -1.70687 -2.19456
      CHANNELS 3 Zrotation Xrotation Yrotation
      JOINT lShin
      {
        OFFSET 0 -36.8199 0.73152
        CHANNELS 3 Zrotation Xrotation Yrotation
        JOINT lFoot
        {
          OFFSET -0.73152 -45.1104 -5.12064
          CHANNELS 3 Zrotation Xrotation Yrotation
          End Site
          {
            OFFSET 1.1221 -3.69964 12.103
          }
        }
      }
    }
  }
}
MOTION
Frames:	8
Frame Time:	0.00833333
-34.4005 80.7386 14.4838 -11.0707 51.6546 2.3113 -14.7389 6.8772 -22.0669 4.1811 -0.184372 -6.41647 0.291212 7.84057 20.1687 -20.1787 -6.34921 38.669 -0.0 0.0 0.0 -0.0 0.0 0.0 -1.19399e-13 -1.66581e-13 -9.53294e-13 44.4199 -20.8948 50.0879 -27.6169 -42.0884 87.7532 -0.00276164 1.71362 0.240857 -4.86541e-10 -3.65264e-10 3.08615e-09 -8.47838e-10 -6.34086e-10 5.33652e-09 -4.86526e-10 -3.65264e-10 3.08614e-09 7.73091 5.47488 0.417314 -4.86534e-10 -3.65261e-10 3.08615e-09 2.90554 0.965183 0.102902 -4.86532e-10 -3.6526e-10 3.08615e-09 10.2786 0.731801 0.0259123 -4.86548e-10 -3.65258e-10 3.08615e-09 2.22167 -0.733487 -0.20892 -1.1948e-13 -1.66582e-13 -9.53558e-13 -18.0276 -9.1019 -133.559 17.0803 -9.73098 -31.988 0.0575337 6.83481 -0.965185 3.50885e-09 -2.23882e-09 -6.71255e-10 6.06393e-09 -3.84841e-09 -1.19559e-09 3.50884e-09 -2.23881e-09 -6.71251e-10 -7.73091 5.47488 -0.417314 3.50885e-09 -2.23881e-09 -6.71266e-10 -2.90554 0.965183 -0.102902 3.50885e-09 -2.23882e-09 -6.71257e-10 -10.2786 0.731801 -0.0259123 3.50886e-09 -2.23882e-09 -6.71258e-10 -2.22167 -0.733487 0.20892 -2.03217e-16 0.0 -3.88251e-19 10.6072 -39.0231 10.2568 -0.325249 38.5736 0.678371 3.75876 -3.81481 22.1851 2.03217e-16 0.0 3.88251e-19 25.2823 -10.7386 17.8942 0.0241822 30.7024 -0.995626 3.44001 -7.687 17.6663
-34.462 80.7936 14.318 -11.2129 51.8535 2.2717 -14.6148 7.07448 -22.0178 4.24495 -0.140717 -6.4077 0.191831 7.88896 20.1767 -20.1734 -6.58061 38.6524 -0.0 0.0 0.0 -0.0 0.0 0.0 -1.33993e-13 -1.55754e-13 -9.86229e-13 44.8947 -20.6707 50.3945 -27.65 -41.9632 87.5188 -0.000230211 0.747383 0.104992 -6.39088e-10 -4.24024e-10 3.43749e-09 -1.11437e-09 -7.37167e-10 5.94486e-09 -6.39076e-10 -4.24026e-10 3.43747e-09 7.73091 5.47488 0.417314 -6.39085e-10 -4.24025e-10 3.43749e-09 2.90554 0.965183 0.102902 -6.39077e-10 -4.24024e-10 3.43748e-09 10.2786 0.731801 0.0259123 -6.39098e-10 -4.24021e-10 3.43749e-09 2.22167 -0.733487 -0.20892 -1.34017e-13 -1.55766e-13 -9.86486e-13 -17.9756 -8.95682 -133.412 16.985 -9.63552 -31.7813 0.0608266 7.02418 -0.992201 4.021e-09 -2.70309e-09 -5.55877e-10 6.95097e-09 -4.64898e-09 -1.00021e-09 4.02098e-09 -2.70308e-09 -5.55877e-10 -7.73091 5.47488 -0.417314 4.02099e-09 -2.70307e-09 -5.55893e-10 -2.90554 0.965183 -0.102902 4.021e-09 -2.70309e-09 -5.55879e-10 -10.2786 0.731801 -0.0259123 4.021e-09 -2.70308e-09 -5.55882e-10 -2.22167 -0.733487 0.20892 -2.03217e-16 0.0 -3.88251e-19 10.5973 -39.045 10.2385 -0.32202 38.4203 0.677829 3.62143 -3.63505 21.8833 2.03217e-16 0.0 3.88251e-19 25.42 -10.997 18.1065 0.0268853 30.8335 -0.996573 3.40443 -7.67928 17.4801
-34.5119 80.8005 14.1212 -11.203 52.0987 2.3286 -14.49 7.25354 -21.9715 4.325 -0.0902487 -6.39923 0.114061 7.86283 20.1592 -20.1546 -6.65893 38.6147 -0.0 0.0 0.0 -0.0 0.0 0.0 -1.1821e-13 -1.78103e-13 -9.76331e-13 45.357 -20.4106 50.6618 -27.6854 -41.8281 87.2648 -4.43368e-05 -0.190131 -0.0267213 -7.29094e-10 -4.67109e-10 3.72642e-09 -1.2721e-09 -8.12826e-10 6.4446e-09 -7.29084e-10 -4.67112e-10 3.7264e-09 7.73091 5.47488 0.417314 -7.29094e-10 -4.67113e-10 3.72641e-09 2.90554 0.965183 0.102902 -7.29082e-10 -4.67112e-10 3.72641e-09 10.2786 0.731801 0.0259123 -7.29105e-10 -4.67109e-10 3.72642e-09 2.22167 -0.733487 -0.20892 -1.18202e-13 -1.78119e-13 -9.76579e-13 -17.9116 -8.80842 -133.269 16.8833 -9.53461 -31.5607 0.0635057 7.17204 -1.01332 4.03344e-09 -2.71381e-09 -5.31105e-10 6.97337e-09 -4.66776e-09 -9.57298e-10 4.03342e-09 -2.7138e-09 -5.31108e-10 -7.73091 5.47488 -0.417314 4.03343e-09 -2.71379e-09 -5.31124e-10 -2.90554 0.965183 -0.102902 4.03344e-09 -2.71381e-09 -5.31108e-10 -10.2786 0.731801 -0.0259123 4.03345e-09 -2.71381e-09 -5.31111e-10 -2.22167 -0.733487 0.20892 -2.03217e-16 0.0 -3.88251e-19 10.5387 -39.0959 10.1741 -0.318862 38.2601 0.675762 3.51251 -3.52214 21.5821 2.03217e-16 0.0 3.88251e-19 25.533 -11.3218 18.3304 0.0298984 30.9717 -0.99682 3.37726 -7.66762 17.3395
-34.5625 80.8521 13.9265 -11.2598 52.3888 2.3293 -14.378 7.40488 -21.8979 4.41309 -0.0261507 -6.38261 0.0910263 7.71784 20.0941 -20.1082 -6.49049 38.526 -0.0 0.0 0.0 -0.0 0.0 0.0 -5.87344e-14 -2.68012e-13 -9.03125e-13 45.8078 -20.1358 50.856 -27.7217 -41.6846 86.997 -0.00147311 -1.09671 -0.154106 -7.93261e-10 -4.80483e-10 4.03307e-09 -1.38458e-09 -8.36828e-10 6.97354e-09 -7.93252e-10 -4.80485e-10 4.03305e-09 7.73091 5.47488 0.417314 -7.93262e-10 -4.80487e-10 4.03306e-09 2.90554 0.965183 0.102902 -7.93249e-10 -4.80485e-10 4.03306e-09 10.2786 0.731801 0.0259123 -7.93271e-10 -4.80483e-10 4.03307e-09 2.22167 -0.733487 -0.20892 -5.87317e-14 -2.68024e-13 -9.03366e-13 -17.812 -8.6651 -133.162 16.7777 -9.43038 -31.3324 0.0650614 7.25611 -1.02533 3.27971e-09 -1.89998e-09 -7.69751e-10 5.66943e-09 -3.26342e-09 -1.36372e-09 3.27968e-09 -1.89996e-09 -7.69756e-10 -7.73091 5.47488 -0.417314 3.27969e-09 -1.89996e-09 -7.6977e-10 -2.90554 0.965183 -0.102902 3.2797e-09 -1.89998e-09 -7.69755e-10 -10.2786 0.731801 -0.0259123 3.27971e-09 -1.89998e-09 -7.69758e-10 -2.22167 -0.733487 0.20892 -2.03217e-16 0.0 -3.88251e-19 10.4186 -39.1808 10.0558 -0.315794 38.0886 0.67144 3.44429 -3.50591 21.2922 2.03217e-16 0.0 3.88251e-19 25.6113 -11.7337 18.5682 0.0335367 31.1282 -0.996058 3.35823 -7.622 17.2856
-34.6217 80.9386 13.7075 -11.3218 52.6962 2.384 -14.2725 7.54264 -21.8083 4.5094 0.0485568 -6.36134 0.091834 7.49244 19.9989 -20.0276 -6.16511 38.4073 -0.0 0.0 0.0 -0.0 0.0 0.0 3.45987e-14 -4.01132e-13 -7.73567e-13 46.2607 -19.8403 51.0082 -27.7589 -41.5308 86.7134 -0.00469385 -1.99493 -0.280452 -8.44675e-10 -4.73856e-10 4.35313e-09 -1.47462e-09 -8.26133e-10 7.5248e-09 -8.44667e-10 -4.73857e-10 4.35311e-09 7.73091 5.47488 0.417314 -8.44677e-10 -4.73859e-10 4.35312e-09 2.90554 0.965183 0.102902 -8.44666e-10 -4.73857e-10 4.35312e-09 10.2786 0.731801 0.0259123 -8.44682e-10 -4.73855e-10 4.35313e-09 2.22167 -0.733487 -0.20892 3.45744e-14 -4.01132e-13 -7.73797e-13 -17.6849 -8.51885 -133.073 16.666 -9.32075 -31.0925 0.0658851 7.3012 -1.03177 1.95108e-09 -5.00276e-10 -1.17238e-09 3.3705e-09 -8.48146e-10 -2.049e-09 1.95106e-09 -5.00252e-10 -1.17238e-09 -7.73091 5.47488 -0.417314 1.95107e-09 -5.00263e-10 -1.1724e-09 -2.90554 0.965183 -0.102902 1.95108e-09 -5.00279e-10 -1.17238e-09 -10.2786 0.731801 -0.0259123 1.95109e-09 -5.00276e-10 -1.17239e-09 -2.22167 -0.733487 0.20892 -2.03217e-16 0.0 -3.88251e-19 10.2529 -39.2879 9.89708 -0.312842 37.9098 0.665574 3.40284 -3.55886 21.0041 2.03217e-16 0.0 3.88251e-19 25.6654 -12.2034 18.8159 0.0375192 31.2939 -0.994577 3.34568 -7.5577 17.2901
-34.691 80.9942 13.4706 -11.3918 52.9959 2.4355 -14.1478 7.67752 -21.7612 4.63214 0.120804 -6.3518 0.0642643 7.25718 19.9108 -19.9478 -5.82504 38.3109 -0.0 0.0 0.0 -0.0 0.0 0.0 1.39205e-13 -5.18357e-13 -6.28506e-13 46.7034 -19.4833 51.1738 -27.7985 -41.3635 86.4047 -0.00987653 -2.87279 -0.404088 -7.90942e-10 -4.71529e-10 4.50955e-09 -1.38213e-09 -8.22549e-10 7.79346e-09 -7.90934e-10 -4.71528e-10 4.50953e-09 7.73091 5.47488 0.417314 -7.90944e-10 -4.7153e-10 4.50954e-09 2.90554 0.965183 0.102902 -7.90934e-10 -4.71527e-10 4.50954e-09 10.2786 0.731801 0.0259123 -7.90946e-10 -4.71527e-10 4.50954e-09 2.22167 -0.733487 -0.20892 1.39148e-13 -5.18345e-13 -6.28722e-13 -17.5774 -8.35691 -132.942 16.5438 -9.20202 -30.8304 0.0665457 7.33881 -1.03714 5.03679e-10 8.29543e-10 -1.42474e-09 8.66944e-10 1.44421e-09 -2.47304e-09 5.03662e-10 8.29572e-10 -1.42475e-09 -7.73091 5.47488 -0.417314 5.03671e-10 8.2955e-10 -1.42475e-09 -2.90554 0.965183 -0.102902 5.03669e-10 8.29539e-10 -1.42474e-09 -10.2786 0.731801 -0.0259123 5.03679e-10 8.29541e-10 -1.42475e-09 -2.22167 -0.733487 0.20892 -2.03217e-16 0.0 -3.88251e-19 10.0568 -39.4144 9.70437 -0.31001 37.7309 0.659313 3.36694 -3.63608 20.7004 2.03217e-16 0.0 3.88251e-19 25.7137 -12.7045 19.0738 0.0413238 31.4507 -0.992842 3.34138 -7.53102 17.2814
-34.7743 81.0075 13.2311 -11.6095 53.3705 2.3584 -13.9777 7.82005 -21.8154 4.79962 0.177511 -6.37038 -0.0429225 7.08298 19.8665 -19.9058 -5.61398 38.2866 -0.0 0.0 0.0 -0.0 0.0 0.0 2.325e-13 -5.60582e-13 -5.08789e-13 47.1219 -19.0256 51.4091 -27.8415 -41.1792 86.0619 -0.0169867 -3.71831 -0.523316 -5.39666e-10 -4.97801e-10 4.32526e-09 -9.4704e-10 -8.67881e-10 7.47466e-09 -5.39659e-10 -4.97799e-10 4.32525e-09 7.73091 5.47488 0.417314 -5.39668e-10 -4.97801e-10 4.32525e-09 2.90554 0.965183 0.102902 -5.3966e-10 -4.97798e-10 4.32525e-09 10.2786 0.731801 0.0259123 -5.39669e-10 -4.97798e-10 4.32525e-09 2.22167 -0.733487 -0.20892 2.32423e-13 -5.60564e-13 -5.08988e-13 -17.5371 -8.16707 -132.71 16.4064 -9.07034 -30.5353 0.0676443 7.40046 -1.04595 -6.06405e-10 1.43372e-09 -1.21259e-09 -1.05089e-09 2.4798e-09 -2.09574e-09 -6.0642e-10 1.43375e-09 -1.21259e-09 -7.73091 5.47488 -0.417314 -6.0641e-10 1.43372e-09 -1.2126e-09 -2.90554 0.965183 -0.102902 -6.06415e-10 1.43372e-09 -1.21259e-09 -10.2786 0.731801 -0.0259123 -6.06406e-10 1.43372e-09 -1.21259e-09 -2.22167 -0.733487 0.20892 -2.03217e-16 0.0 -3.88251e-19 9.84548 -39.5578 9.48404 -0.30728 37.559 0.653795 3.31619 -3.69232 20.3634 2.03217e-16 0.0 3.88251e-19 25.7743 -13.211 19.3422 0.0444364 31.5803 -0.99132 3.34714 -7.5982 17.1879
-34.8577 81.0084 12.9706 -11.8164 53.8172 2.3142 -13.7302 7.9723 -22.0682 5.06203 0.211716 -6.44458 -0.331851 6.98983 19.911 -19.9113 -5.61586 38.4211 -0.0 0.0 0.0 -0.0 0.0 0.0 3.33761e-13 -4.93489e-13 -4.25026e-13 47.463 -18.3939 51.8067 -27.8889 -40.9691 85.6721 -0.0254897 -4.49914 -0.63366 1.36663e-10 -6.13297e-10 3.60659e-09 2.24627e-10 -1.06666e-09 6.23481e-09 1.36668e-10 -6.13294e-10 3.60658e-09 7.73091 5.47488 0.417314 1.3666e-10 -6.13296e-10 3.60658e-09 2.90554 0.965183 0.102902 1.36668e-10 -6.13294e-10 3.60658e-09 10.2786 0.731801 0.0259123 1.3666e-10 -6.13294e-10 3.60658e-09 2.22167 -0.733487 -0.20892 3.3368e-13 -4.93475e-13 -4.25198e-13 -17.6455 -7.97334 -132.281 16.2458 -8.91836 -30.1917 0.0695309 7.50371 -1.06071 -1.42979e-09 9.57836e-10 -1.17658e-10 -2.46813e-09 1.64111e-09 -1.92367e-10 -1.4298e-09 9.57862e-10 -1.17657e-10 -7.73091 5.47488 -0.417314 -1.4298e-09 9.57839e-10 -1.17663e-10 -2.90554 0.965183 -0.102902 -1.4298e-09 9.57835e-10 -1.17657e-10 -10.2786 0.731801 -0.0259123 -1.42979e-09 9.57836e-10 -1.17659e-10 -2.22167 -0.733487 0.20892 -2.03217e-16 0.0 -3.88251e-19 9.6278 -39.7223 9.24946 -0.304677 37.3994 0.649646 3.23967 -3.70794 19.9713 2.03217e-16 0.0 3.88251e-19 25.853 -13.714 19.6097 0.0464671 31.6689 -0.990341 3.37501 -7.82657 16.9776
